<?xml version="1.0" encoding="UTF-8"?>
<svg version="1.1" xmlns="http://www.w3.org/2000/svg" width="512" height="512">
<path d="M0 0 C39.50369253 23.2217652 84.39732245 36.05247692 129.5246582 42.35864258 C143.00408228 44.28236093 155.79283314 46.74100593 164.57226562 58.13916016 C171.01142307 67.81781124 171.82662728 75.35023486 171.80395508 86.78393555 C171.80830827 88.12856833 171.81349343 89.47319864 171.81944275 90.81782532 C171.83279607 94.45929582 171.83341425 98.10066225 171.83087945 101.74215245 C171.8298047 104.79987739 171.83470724 107.85758172 171.83948487 110.91530222 C171.85057288 118.15050051 171.85102503 125.38564693 171.8449707 132.62084961 C171.83896588 140.02840623 171.85115395 147.43577122 171.87254077 154.84329516 C171.89031811 161.24119159 171.89613207 167.639028 171.89290303 174.03694814 C171.8911114 177.84044593 171.89350684 181.64380785 171.90761757 185.44728279 C172.11580388 246.90073353 153.28425308 304.56721967 110.39648438 349.73291016 C108.79644051 351.34334392 107.17415236 352.92241581 105.52929688 354.48681641 C104.72492188 355.29119141 103.92054688 356.09556641 103.09179688 356.92431641 C102.24617188 357.76994141 101.40054687 358.61556641 100.52929688 359.48681641 C100.03816406 360.02435547 99.54703125 360.56189453 99.04101562 361.11572266 C92.03723537 368.55432741 83.75243342 374.48072979 75.52929688 380.48681641 C74.9435791 380.91720215 74.35786133 381.34758789 73.75439453 381.79101562 C62.27960069 390.11492997 49.65452921 396.62605915 37.22485352 403.38340759 C30.7210905 406.92033987 24.24892873 410.51281278 17.77929688 414.11181641 C16.68069336 414.72017334 15.58208984 415.32853027 14.45019531 415.95532227 C8.83100397 419.07106527 3.23559358 422.2216518 -2.33007812 425.43212891 C-3.44543945 426.07069824 -4.56080078 426.70926758 -5.70996094 427.3671875 C-7.80901261 428.5707318 -9.90260771 429.78386942 -11.98925781 431.00878906 C-22.0987526 436.78491062 -32.72177812 440.53265089 -44.37109375 437.80859375 C-52.60692342 435.3797176 -59.68684907 431.97660806 -67.09570312 427.67431641 C-68.26469788 427.00834076 -69.4344769 426.34374012 -70.60498047 425.68041992 C-73.02678175 424.30664492 -75.44517025 422.92713131 -77.86132812 421.54345703 C-83.5738449 418.27927148 -89.33865575 415.10903047 -95.09570312 411.92431641 C-97.33297517 410.6800512 -99.56995532 409.43526102 -101.80664062 408.18994141 C-106.26395478 405.70973552 -110.72820033 403.2426531 -115.19726562 400.78369141 C-126.61870717 394.47896767 -137.89151868 388.14193073 -148.47070312 380.48681641 C-149.30384033 379.88474365 -149.30384033 379.88474365 -150.15380859 379.27050781 C-157.46673353 373.92913221 -164.2255699 368.14088425 -170.81445312 361.93212891 C-173.41241843 359.48026636 -173.41241843 359.48026636 -176.11132812 357.39306641 C-178.25348868 355.66231417 -179.95218284 353.96081776 -181.72070312 351.86181641 C-184.31868375 348.81030899 -186.98875833 345.85627859 -189.72070312 342.92431641 C-214.01684128 315.86912527 -230.52782555 281.29456123 -239.15820312 246.17431641 C-239.34842041 245.41884521 -239.5386377 244.66337402 -239.73461914 243.88500977 C-240.38927587 241.09665703 -240.93448301 238.30071546 -241.47070312 235.48681641 C-241.592506 234.85070403 -241.71430887 234.21459166 -241.83980274 233.55920315 C-244.86798849 217.10441148 -244.93272201 200.67800629 -244.9066112 184.01292825 C-244.90347597 180.91359605 -244.90965744 177.81430761 -244.91564995 174.71498173 C-244.92957481 167.40426877 -244.92822924 160.09367304 -244.91674805 152.78295898 C-244.90521494 145.27370173 -244.91945649 137.76479948 -244.94614452 130.25558883 C-244.96834574 123.76246856 -244.97493084 117.26945945 -244.96906811 110.77630395 C-244.96571556 106.91747141 -244.96800219 103.05886758 -244.98531914 99.20006752 C-245.00086297 95.58077489 -244.99675164 91.96200957 -244.97801399 88.3427372 C-244.97261817 86.39823185 -244.98677569 84.45370232 -245.00170898 82.50924683 C-244.90537117 70.96720773 -241.70745803 61.75424823 -233.47070312 53.48681641 C-222.6585932 44.57763783 -209.69814443 43.3965826 -196.24468994 41.46786499 C-148.71736656 34.57474772 -103.51575932 18.45006285 -62.10742188 -5.84912109 C-38.50202602 -19.59452943 -22.41139384 -13.21624976 0 0 Z M12.46679688 148.73681641 C11.15330515 150.17980731 9.83949406 151.62250756 8.52539062 153.06494141 C7.86265137 153.80035156 7.19991211 154.53576172 6.51708984 155.29345703 C3.39940543 158.73355489 0.21299037 162.10792994 -2.97070312 165.48681641 C-4.22107168 166.81980413 -5.47107089 168.15313839 -6.72070312 169.48681641 C-14.22070312 177.48681641 -14.22070312 177.48681641 -16.09765625 179.48876953 C-17.34131927 180.81542988 -18.58481029 182.1422515 -19.828125 183.46923828 C-23.04865272 186.90604489 -26.27257439 190.33957376 -29.50195312 193.76806641 C-30.16646484 194.47447266 -30.83097656 195.18087891 -31.515625 195.90869141 C-32.77100889 197.24308547 -34.02743073 198.57650421 -35.28515625 199.90869141 C-39.45452122 204.34359135 -43.48951707 208.88243558 -47.47070312 213.48681641 C-51.48910756 211.62649384 -54.3627536 208.95945333 -57.53320312 205.92431641 C-62.49286237 201.25590762 -67.5797052 196.85038471 -72.90039062 192.59228516 C-76.19082476 189.89692954 -79.30352157 187.03007662 -82.40039062 184.11572266 C-87.36937281 180.20616497 -92.33035941 179.99846793 -98.45898438 180.10400391 C-104.32800253 180.85000103 -107.92173098 183.81555699 -111.84570312 188.04931641 C-115.9346469 194.18273207 -116.17071523 199.17452776 -115.47070312 206.48681641 C-113.64302145 214.83123193 -105.63325365 220.1921186 -99.47070312 225.48681641 C-98.09522853 226.69460947 -96.72015506 227.9028597 -95.34570312 229.11181641 C-94.724375 229.65064453 -94.10304687 230.18947266 -93.46289062 230.74462891 C-91.11049677 232.80182039 -88.79035347 234.89278555 -86.47070312 236.98681641 C-82.85380194 240.25084918 -79.209937 243.47854719 -75.52929688 246.67041016 C-74.02517062 247.99758038 -72.54076619 249.34719708 -71.06835938 250.70947266 C-60.59430051 260.56057548 -60.59430051 260.56057548 -47.28320312 264.79931641 C-34.10096593 263.71880516 -26.18445801 252.80054826 -18.14648438 243.38134766 C-15.70416128 240.62021316 -13.06516051 238.0721283 -10.43945312 235.48681641 C-8.53083857 233.54790639 -6.74359761 231.5498209 -4.97070312 229.48681641 C-1.95307959 225.97539993 1.26288768 222.73374238 4.56054688 219.48681641 C6.46916143 217.54790639 8.25640239 215.5498209 10.02929688 213.48681641 C13.04692041 209.97539993 16.26288768 206.73374238 19.56054688 203.48681641 C21.46916143 201.54790639 23.25640239 199.5498209 25.02929688 197.48681641 C27.42606275 194.69785247 29.90889078 192.06690856 32.52929688 189.48681641 C35.78088124 186.2790877 38.83069585 182.96146773 41.79882812 179.49072266 C42.98006742 178.12283155 44.18728768 176.77705821 45.41601562 175.45166016 C50.87932207 169.50730786 54.21150354 164.04462962 53.87304688 155.75244141 C52.87479503 149.17305427 49.40423773 144.68350045 44.24023438 140.67431641 C32.31737581 132.39909037 20.80929046 139.30141974 12.46679688 148.73681641 Z " fill="#000000" transform="translate(292.470703125,44.51318359375)"/>
</svg>
